# xmcd CD database file
#
# Track frame offsets:
#	150
#	16126
#	28804
#	43730
#	56658
#	72653
#	86119
#	102119
#	120754
#	135147
#	149324
#	163977
#
# Disc length: 2379 seconds
#
# Revision: 0
# Processed by: cddbd v1.5.2PL0 Copyright (c) Steve Scherf et al.
# Submitted via: ACXtractor (MTCDDB.DLL V2003.07.15)
#
DISCID=a009490c
DTITLE=Craig Robertson - Opposite Side of the World
DYEAR=2012
DGENRE=Country
TTITLE0=The Valley Road
TTITLE1=Cowboys On T.V.
TTITLE2=You Ran Away
TTITLE3=Broken Hearts and Broken Glass
TTITLE4=I Count the Tears
TTITLE5=I'll Love You Forever
TTITLE6=I Was the One Who Walked Away (Duet) 
TTITLE7=Josie's Head
TTITLE8=You'Ve Forgotten that I Love You
TTITLE9=From You
TTITLE10=Outa Gas
TTITLE11=Opposite Side Of The World
EXTD=ID3G:   2 YEAR: 2012
EXTT0=
EXTT1=
EXTT2=
EXTT3=
EXTT4=
EXTT5=
EXTT6=
EXTT7=
EXTT8=
EXTT9=
EXTT10=
EXTT11=
PLAYORDER=
